<?xml version="1.0" encoding="utf-8"?>
<!-- Generator: Adobe Illustrator 23.0.0, SVG Export Plug-In . SVG Version: 6.00 Build 0)  -->
<svg version="1.1" id="Calque_1" xmlns="http://www.w3.org/2000/svg" xmlns:xlink="http://www.w3.org/1999/xlink" x="0px" y="0px"
	 viewBox="0 0 183.8 52.8" style="enable-background:new 0 0 183.8 52.8;" xml:space="preserve">
<style type="text/css">
	.st0{fill: #424954;}
	.st1{fill: #5BF158;}
</style>
<title>logo</title>
<path class="st0" d="M29,14.4c0.1,3.2-0.8,6.4-2.6,9.2l3.3,3.3L26,30.6l-3.4-3.4c-2.4,1.4-5.2,2.2-8,2.1C4.5,29.3,0.1,22,0,14.7
	S4.6,0,14.5,0S28.9,7.2,29,14.4z M5.2,14.8c0.1,4.6,3.1,9.6,9.3,9.6c6.4,0,9.4-5.3,9.2-10.2c-0.2-4.5-2.6-9.4-9.2-9.4
	S5.2,10.1,5.2,14.8z"/>
<path class="st0" d="M37.5,9v10.4c0,3,1.7,5.3,4.8,5.3s5.1-2.5,5.1-5.5V9h4.9v19.8h-4.4l-0.3-2.7c-1.7,1.9-4.2,3-6.7,3
	c-4.8,0-8.2-3.6-8.2-9.7V9H37.5z"/>
<path class="st0" d="M62,3.4c0,3.8-5.8,3.8-5.8,0S62-0.4,62,3.4z M56.7,8.9v19.9h4.9V8.9H56.7z"/>
<path class="st0" d="M81.4,9v2.3L72.3,24h9.2v4.8H64.8v-2l9.5-13.3h-8.8V9H81.4z"/>
<path class="st0" d="M99.9,52.2h-6.3l-8.2-9.4h-5.1v9.4H75V24c4.5,0,8.9,0,13.4,0c6.6,0,10.1,4.5,10.1,9.3c0,3.9-1.8,7.8-7.1,8.8
	l8.5,9.6V52.2z M80.3,29v9h8.1c3.4,0,4.8-2.3,4.8-4.5S91.7,29,88.4,29H80.3z"/>
<path class="st0" d="M127.6,24v16.1c0,8.3-5.1,12.6-12.2,12.6c-6.8,0-12.5-4.1-12.5-12.6V24h5.3v16.1c0,5.1,2.9,7.8,7.3,7.8
	s6.9-2.9,6.9-7.8V24H127.6z"/>
<path class="st0" d="M150.2,30.8c-1-1.6-3.6-3.1-6.7-3.1c-3.9,0-5.8,1.6-5.8,3.7c0,2.5,2.9,3.1,6.3,3.5c5.9,0.7,11.3,2.3,11.3,9
	c0,6.3-5.6,9-11.8,9c-5.7,0-10.2-1.8-12.3-6.9l4.4-2.3c1.2,3.1,4.5,4.5,7.9,4.5S150,47,150,44c0-2.7-2.8-3.7-6.5-4.1
	c-5.7-0.7-11-2.2-11-8.5c0-5.8,5.7-8.1,10.9-8.2c4.4,0,8.9,1.2,11,5.6L150.2,30.8z"/>
<path class="st0" d="M178.6,52.2V40.8h-13.8v11.4h-5.3V24h5.3v11.9h13.8V24h5.3v28.1H178.6z"/>
<g>
	<path class="st1" d="M56.1,39.4h-2v2.5h2C57.8,41.9,57.8,39.4,56.1,39.4z"/>
	<path class="st1" d="M61.6,35.1H40.9c-3.5,0-6.3,2.8-6.3,6.3v0c0,3.5,2.8,6.3,6.3,6.3h20.7c3.5,0,6.3-2.8,6.3-6.3v0
		C67.9,37.9,65.1,35.1,61.6,35.1z M51.6,45.1h-1.3v-5.1l-2.3,3h-0.3l-2.2-3v5.1h-1.3v-7h1.5l2.2,3l2.2-3h1.5V45.1z M56.1,43.1h-2
		v2.1h-1.3v-7c1.1,0,2.2,0,3.3,0C59.5,38.1,59.5,43.1,56.1,43.1z"/>
</g>
</svg>
